<?xml version="1.0" encoding="UTF-8"?>
<svg id="Capa_2" data-name="Capa 2" xmlns="http://www.w3.org/2000/svg" viewBox="0 0 493.94 70.31">
  <defs>
    <style>
      .cls-1 {
        fill: #f5f0e9;
      }
    </style>
  </defs>
  <g id="Capa_1-2" data-name="Capa 1">
    <g>
      <path class="cls-1" d="M1.62,1.66C2.69.55,4.13,0,5.93,0h29c1.74,0,3.16.57,4.27,1.71,1.11,1.14,1.66,2.54,1.66,4.22v24.24h-7.54V9.16c0-.72-.27-1.38-.81-1.98-.54-.6-1.2-.9-1.98-.9H10.33c-.84,0-1.53.27-2.07.81-.54.54-.81,1.23-.81,2.07v21.01H0V5.93c0-1.74.54-3.16,1.62-4.26ZM0,0h7.45v70.31H0V0ZM0,28.01h7.45v1.44c0,.84.22,1.53.67,2.07s1.12.81,2.02.81h20.56c.84,0,1.48-.24,1.93-.72.45-.48.67-1.14.67-1.98v-1.62h7.54v4.13c0,2.04-.57,3.64-1.71,4.8-1.14,1.17-2.75,1.75-4.85,1.75H10.15c-.84,0-1.5.22-1.98.67-.48.45-.72,1.09-.72,1.93H0v-13.29Z"/>
      <path class="cls-1" d="M49.52,68.6c-1.11-1.14-1.66-2.57-1.66-4.31v-25.41c0-2.09.55-3.7,1.66-4.8s2.71-1.66,4.8-1.66h24.24c.78,0,1.41-.25,1.89-.76.48-.51.72-1.18.72-2.02V9.16c0-.72-.27-1.38-.81-1.98-.54-.6-1.2-.9-1.98-.9h-20.29c-.72,0-1.29.15-1.71.45-.42.3-.78.66-1.08,1.08v15.71h-6.82V2.96c.48-.84,1.12-1.54,1.93-2.11.81-.57,1.93-.85,3.37-.85h29.09c1.68,0,3.07.57,4.18,1.71,1.11,1.14,1.66,2.54,1.66,4.22v64.38h-34.93c-1.74,0-3.16-.57-4.26-1.71ZM80.41,63.17c.51-.57.76-1.24.76-2.02v-19.66c0-.78-.22-1.44-.67-1.98-.45-.54-1.09-.81-1.93-.81h-20.65c-.78,0-1.41.24-1.89.72-.48.48-.72,1.14-.72,1.98v19.75c0,.78.28,1.45.85,2.02.57.57,1.24.85,2.02.85h20.29c.78,0,1.42-.28,1.93-.85Z"/>
      <path class="cls-1" d="M97.38,1.71c1.11-1.14,2.53-1.71,4.26-1.71h29c1.62,0,2.84.28,3.68.85.84.57,1.58,1.27,2.25,2.11v20.56h-7.54V7.81c-.24-.42-.58-.78-1.03-1.08-.45-.3-1-.45-1.66-.45h-20.38c-.78,0-1.44.3-1.98.9-.54.6-.81,1.26-.81,1.98v20.83h-7.45V5.93c0-1.67.55-3.08,1.66-4.22ZM95.72,8.8h7.45v61.51h-7.45V8.8Z"/>
      <path class="cls-1" d="M143.89,68.6c-1.11-1.14-1.66-2.57-1.66-4.31v-25.41c0-2.09.55-3.7,1.66-4.8s2.71-1.66,4.8-1.66h24.24c.78,0,1.41-.25,1.89-.76.48-.51.72-1.18.72-2.02V9.16c0-.72-.27-1.38-.81-1.98-.54-.6-1.2-.9-1.98-.9h-20.29c-.72,0-1.29.15-1.71.45-.42.3-.78.66-1.08,1.08v15.71h-6.82V2.96c.48-.84,1.12-1.54,1.93-2.11.81-.57,1.93-.85,3.37-.85h29.09c1.68,0,3.07.57,4.18,1.71,1.11,1.14,1.66,2.54,1.66,4.22v64.38h-34.93c-1.74,0-3.16-.57-4.26-1.71ZM174.78,63.17c.51-.57.76-1.24.76-2.02v-19.66c0-.78-.22-1.44-.67-1.98-.45-.54-1.09-.81-1.93-.81h-20.65c-.78,0-1.41.24-1.89.72-.48.48-.72,1.14-.72,1.98v19.75c0,.78.28,1.45.85,2.02.57.57,1.24.85,2.02.85h20.29c.78,0,1.42-.28,1.93-.85Z"/>
      <path class="cls-1" d="M220.93,1.71c1.11-1.14,2.53-1.71,4.26-1.71h29c1.62,0,2.84.28,3.68.85.84.57,1.58,1.27,2.25,2.11v20.56h-7.54V7.81c-.24-.42-.58-.78-1.03-1.08-.45-.3-1-.45-1.66-.45h-20.38c-.78,0-1.44.3-1.98.9-.54.6-.81,1.26-.81,1.98v20.83h-7.45V5.93c0-1.67.55-3.08,1.66-4.22ZM220.93,68.6c-1.11-1.14-1.66-2.54-1.66-4.22V21.55h7.45v39.6c0,.78.28,1.45.85,2.02.57.57,1.24.85,2.02.85h30.53v6.29h-34.93c-1.74,0-3.16-.57-4.26-1.71Z"/>
      <path class="cls-1" d="M268.79,1.71c1.11-1.14,2.53-1.71,4.26-1.71h29c1.62,0,2.84.28,3.68.85.84.57,1.58,1.27,2.25,2.11v20.56h-7.54V7.81c-.24-.42-.58-.78-1.03-1.08-.45-.3-1-.45-1.66-.45h-20.38c-.78,0-1.44.3-1.98.9-.54.6-.81,1.26-.81,1.98v20.83h-7.45V5.93c0-1.67.55-3.08,1.66-4.22ZM267.13,8.8h7.45v61.51h-7.45V8.8Z"/>
      <path class="cls-1" d="M354.22,68.65c-1.08,1.11-2.51,1.66-4.31,1.66h-29c-1.74,0-3.16-.57-4.26-1.71-1.11-1.14-1.66-2.54-1.66-4.22V0h7.54v61.15c0,.72.27,1.38.81,1.98.54.6,1.2.9,1.98.9h20.2c.84,0,1.53-.27,2.07-.81s.81-1.23.81-2.07V0h7.45v64.38c0,1.74-.54,3.16-1.62,4.26Z"/>
      <path class="cls-1" d="M386.95,7.23c-.39-.63-.97-.94-1.75-.94h-21.91V0h36.19l-25.5,61.06c-.36.72-.34,1.39.04,2.02.39.63,1,.94,1.84.94h22.45v6.29h-36.72l25.5-61.06c.3-.72.25-1.39-.13-2.02Z"/>
      <path class="cls-1" d="M406.88,68.6c-1.11-1.14-1.66-2.57-1.66-4.31v-25.41c0-2.09.55-3.7,1.66-4.8s2.71-1.66,4.8-1.66h24.24c.78,0,1.41-.25,1.89-.76.48-.51.72-1.18.72-2.02V9.16c0-.72-.27-1.38-.81-1.98-.54-.6-1.2-.9-1.98-.9h-20.29c-.72,0-1.29.15-1.71.45-.42.3-.78.66-1.08,1.08v15.71h-6.82V2.96c.48-.84,1.12-1.54,1.93-2.11.81-.57,1.93-.85,3.37-.85h29.09c1.68,0,3.07.57,4.18,1.71,1.11,1.14,1.66,2.54,1.66,4.22v64.38h-34.93c-1.74,0-3.16-.57-4.26-1.71ZM437.77,63.17c.51-.57.76-1.24.76-2.02v-19.66c0-.78-.22-1.44-.67-1.98-.45-.54-1.09-.81-1.93-.81h-20.65c-.78,0-1.41.24-1.89.72-.48.48-.72,1.14-.72,1.98v19.75c0,.78.28,1.45.85,2.02.57.57,1.24.85,2.02.85h20.29c.78,0,1.42-.28,1.93-.85Z"/>
      <path class="cls-1" d="M454.74,1.71c1.11-1.14,2.53-1.71,4.26-1.71h29c1.62,0,2.84.28,3.68.85.84.57,1.58,1.27,2.25,2.11v20.56h-7.54V7.81c-.24-.42-.58-.78-1.03-1.08-.45-.3-1-.45-1.66-.45h-20.38c-.78,0-1.44.3-1.98.9-.54.6-.81,1.26-.81,1.98v20.83h-7.45V5.93c0-1.67.55-3.08,1.66-4.22ZM453.08,8.8h7.45v61.51h-7.45V8.8Z"/>
    </g>
  </g>
</svg>